<svg>
  <path id="idaho_outline" d="M205.95189765996733,93.97290943924416L206.73157020441917,93.87355009764148L207.89108321924502,94.39372547426726L208.65076415999303,93.88523943194768L210.04018061741365,94.15993878814331L210.16013023963703,94.49308481586993L209.10057524333067,97.43879706103164L208.280919491471,97.49139906540951L208.44085232110214,98.78891517339741L207.51124274887107,99.87017859672065L207.42128053220355,101.01573335872797L206.84152402479057,102.24895812803179L206.26176751737765,102.34831746963445L206.23178011182185,104.46408697905615L205.16222931366346,104.39395097321898L204.88234686180894,105.30571904910235L205.6920068118167,106.10059378192376L204.98230488032843,107.10003186510363L205.09225870069983,108.28649929718264L205.9319060562634,109.36191805335278L205.43211596366606,109.7242874168449L205.86193544329976,111.02180352483279L205.4021285581102,111.62964890875504L204.03270370439347,111.3783282211718L202.67327465252865,112.85702901090575L203.39297238586883,114.17792378750603L203.24303535808966,115.35854655243196L202.17348455993132,115.80858592322055L202.3833963988222,116.60346065604196L201.88360630622483,117.43924805893506L203.37298078216494,117.83668542534576L203.84278346920647,119.09913353041506L204.8923426636609,120.45509630993394L206.15181369700625,119.87062959462408L206.57163737478803,118.81274483991324L207.38129732479572,119.18095887055844L208.35089010443463,118.89457018005662L209.6903275525955,117.55614140199704L210.52997490815906,117.24052937572971L210.69990353964218,116.26446996116223L211.8494207526161,116.63268399180745L212.34921084521343,117.6905687465183L213.58869027485488,118.87703617859732L212.81901353225496,120.58367898730211L213.87856852856137,120.78824233766056L213.31880362485234,122.17342845294493L213.82858951930163,123.69304191275057L213.52871546374323,125.16589803533142L214.01850975448863,126.8842301783424L215.078064750795,128.5090476469038L215.20801017487034,129.9585251008723L216.09763653969358,130.42609847312016L215.90771630450664,130.89367184536803L216.82733007488574,131.83466325701693L216.54744762303122,134.0381027737351L215.70780026746766,134.14330678249087L215.98768271932218,136.08373627731962L217.33711596933503,137.3754077181544L217.41708238415063,138.18781645243513L219.046398086018,137.62088373858455L220.6457263823295,139.0528271910937L220.86563402307237,140.8062273370233L221.26546609715027,141.28549004357737L221.2554702952983,142.61222948733075L220.70570119344123,142.94537551505738L221.59532755826453,144.83904767266134L221.18549968233467,145.42351438797118L221.35542831381778,146.50477781129442L222.97474821383324,148.04776993971245L223.47453830643056,148.99460601851445L224.02430740828768,148.66730465794092L223.86437457865648,147.59773056892388L224.96391278237067,146.38203980107937L226.01347197682512,146.12487444634303L226.85311933238867,146.69765182734668L228.57239725092356,147.0191085207671L229.28209918241183,147.63864323899557L229.77189347315723,147.34056521418754L230.9913812990948,148.2815566258364L231.75106223984275,146.5749138171316L233.04052067874395,145.89693242737218L233.71023940282439,146.02551510474035L234.4999077491282,146.95481718208302L235.6594207639541,147.43407988863711L236.91889179729944,147.0600211908388L237.69856434175128,147.42239055433092L239.52779608065762,147.1067785280636L240.08756098436666,148.44520730612317L242.11670876031192,147.62695390468937L243.43615460476892,148.09452727693724L243.98592370662598,147.8782745922726L245.22540313626743,148.60301331925683L245.76517643627258,148.42182863751077L245.07546610848826,147.1067785280636L246.11502950109073,145.90277709452528L246.13502110479462,144.92671767995782L247.20457190295295,145.05530035732596L247.9342654381451,144.24873629019837L248.67395477518917,144.9793196843357L249.86345519557088,147.4691478915557L249.69352656408782,148.40429463605147L250.8130563715059,149.60829606958978L250.99298080484093,150.59020015131034L252.08252320670314,151.2097348695388L250.37324109002023,162.0749711071491L248.70394218074503,172.76486733016645L248.05421506036848,176.8736683387948L247.014651667766,183.43138488457143L245.1754241270077,194.67652448713315L243.3661839918053,206.03855743275685L235.84934099914105,204.8696240021371L226.06345098608486,203.2681852021881L225.16382881940964,203.13375785766684L224.72401353792398,202.95257317592078L211.5995257063174,200.7082209891309L197.08562141729024,198.2476161176764L194.70662057652683,197.66314940236654L190.82824945797134,196.8974980053106L185.71039890977443,195.88637058782456L181.98196481899816,194.962913177635L178.60338379304005,194.4252037995499L174.15525196892358,193.51343572366653L157.14239721690964,189.90727609020468L146.69678428162493,187.52265189174045L146.57683465940156,187.48758388882186L154.85335859281375,150.63111282138203L155.82295137245262,146.75609849887766L156.57263651134863,146.44048647261033L157.97204877062123,143.50646356175486L157.61219990395114,141.95178209903062L158.37188084469912,141.78813141874386L159.1915365965588,140.7653146669516L158.95163735211204,139.81263392099652L158.25193122247575,139.52624523049468L158.44185145766275,138.6846131604485L157.2423552354291,138.55018581592722L156.62261552060838,137.28773771085793L155.46310250578253,137.48061172691018L154.9033376020735,136.37596963497452L155.5430689205981,135.750590249593L155.02328722429684,134.21928745548115L155.6030437317098,133.64651007447748L155.74298495763705,132.3782173022551L157.0924182076499,131.58334256943368L157.37230065950442,130.80015717091845L159.45142744470942,127.63234757393903L161.70048286139752,126.83162817396452L162.50014700955327,125.6919180791103L164.0095130891973,123.9326732660276L163.82958865586224,122.83972050839817L164.19943332438427,121.92210776536169L165.4589043577296,120.91098034787564L166.56843836329574,119.7595809187152L167.86789260404888,117.11779136551463L168.32769948923843,115.98977060496661L170.21690603925643,113.62852507511477L170.8266499522252,113.30706838169435L171.1465156114875,112.29009629705519L172.95575574668993,110.27368612923617L172.27604122075755,108.62548999206236L172.3360160318692,107.04742986072574L171.75625952445628,106.29346779797602L170.676712924446,105.97201110455559L170.37683886888757,105.03686436005982L169.09737623183835,104.63358232649601L169.06738882628252,103.92637760097108L168.26772467812674,102.35416213678755L167.8978800096047,100.4780239806429L167.7479429818255,98.07586578071938L168.6375693466488,96.63223299390403L168.30770788553454,93.7800354231919L167.48805213367487,92.38900464075444L168.12778345219948,90.70574050066203L168.6975441577605,88.17499962337034L171.55634348741734,75.46869323253397L172.19607480594195,72.60480632751566L172.7158565022432,70.2903181348886L175.6646180485676,57.052147033120264L176.0044753115338,55.57929091053941L177.68377002266092,48.57737966112728L180.02278765601653,38.33167814174543L180.76247699306063,35.04113053455091L195.02648623578912,38.13295945854007L192.71745600798934,48.9105256888539L191.38801436168038,55.094183536832226L190.28847615796622,60.26671396732449L190.53837120426488,60.41283064615196L191.8578170487219,63.644931581815484L192.54752737650625,64.4281169803307L192.56751898021014,65.85421576568676L193.8069984098516,67.3738292254924L193.42715793947758,68.2446846313041L193.85697741911133,69.67662808381326L192.81741402650883,70.37214347503198L193.41716213762564,71.12026087062861L193.3871747320698,72.07294161658368L194.22682208763337,72.38270897569791L193.97692704133468,72.75676767349621L192.27764072650368,72.8327483464865L194.79658279319435,75.44531456392157L194.94651982097355,76.53242265439792L196.49586910802535,77.74226875508933L197.7153569339629,78.18061879157172L198.48503367656284,80.73473833747582L199.20473140990302,81.32504971993878L200.35424862287695,83.49926590089146L200.61413947102753,85.27604471543343L201.3238414025158,85.36371472272991L201.71367767474172,86.32808480299119L202.16348875807935,86.71967750224879L201.63371125992617,87.98212560731808L202.3034299840066,89.26795238099977L203.65286323401946,90.21478845980175L203.64286743216755,92.0733926144871L205.2022125210713,91.47139189771795L205.89192284885561,92.28380063199866L205.45210756736995,93.28323871517853Z"></path>
</svg>